<?xml version="1.0" encoding="UTF-8"?>
<svg version="1.1" xmlns="http://www.w3.org/2000/svg" width="500" height="500">
<path d="M0 0 C5.12183863 0.61096626 8.38652561 3.20962516 12.56640625 6.10546875 C14.35007934 7.30429301 16.13528637 8.50083757 17.921875 9.6953125 C18.8401709 10.3126123 19.7584668 10.92991211 20.70458984 11.56591797 C25.1978994 14.53872856 29.78552572 17.35323748 34.37890625 20.16796875 C41.21000209 24.37152927 47.996925 28.62596485 54.73046875 32.984375 C59.57371531 36.11659044 64.44746523 39.20091971 69.31640625 42.29296875 C75.98561428 46.52871756 82.63457388 50.79224651 89.25390625 55.10546875 C94.73306152 58.67441259 100.27540538 62.11076166 105.87890625 65.48046875 C117.38553015 72.41660768 128.48710672 79.98557777 139.62988281 87.48608398 C142.44322866 89.50552661 142.44322866 89.50552661 145.62211609 90.75917053 C148.94894999 93.82857516 148.98763965 94.53373577 149.35328674 98.86743164 C149.42875527 101.20770111 149.47055888 103.54919376 149.48657227 105.890625 C149.51796799 107.16915848 149.54936371 108.44769196 149.58171082 109.76496887 C149.66461107 113.27157253 149.70748882 116.77752044 149.73796964 120.284935 C149.75780998 122.48018992 149.78441432 124.67526514 149.81300163 126.87042236 C149.90042162 133.75070525 149.96297365 140.63056574 149.99062306 147.51135254 C150.02274113 155.4328906 150.13648837 163.34760844 150.32212692 171.26700497 C150.46089787 177.40152646 150.52564378 183.53413491 150.53560966 189.67020512 C150.54316841 193.32969136 150.58091055 196.98259786 150.6961689 200.64041138 C151.35605822 222.78936327 151.35605822 222.78936327 146.62857819 228.80382538 C142.14872659 232.73772382 137.19743844 235.26447644 131.70160484 237.49373341 C128.90100184 238.67151833 126.45444634 240.22494423 123.94921875 241.93359375 C117.40855974 246.07393794 110.86965804 250.21066156 104.25390625 254.23046875 C100.00886331 256.81608581 95.84539951 259.50031565 91.69921875 262.2421875 C90.66055664 262.92756592 89.62189453 263.61294434 88.55175781 264.3190918 C86.45852378 265.70378962 84.36922697 267.09446024 82.28417969 268.49145508 C81.32286133 269.12720459 80.36154297 269.7629541 79.37109375 270.41796875 C78.50597168 270.99546875 77.64084961 271.57296875 76.74951172 272.16796875 C74.50390625 273.41796875 74.50390625 273.41796875 71.50390625 273.41796875 C71.50390625 274.07796875 71.50390625 274.73796875 71.50390625 275.41796875 C69.90600586 276.58789063 69.90600586 276.58789063 67.65625 277.88671875 C66.83060547 278.37052002 66.00496094 278.85432129 65.15429688 279.3527832 C64.25904297 279.86929443 63.36378906 280.38580566 62.44140625 280.91796875 C56.00926495 284.6941736 49.66923033 288.53133893 43.50390625 292.73046875 C38.45907215 296.15895799 33.33496917 299.28223926 28.01953125 302.28125 C25.02111325 304.04486495 22.16684725 305.99038927 19.30078125 307.9609375 C18.36830566 308.5993457 17.43583008 309.23775391 16.47509766 309.89550781 C14.6044869 311.18365871 12.74186057 312.48349646 10.88818359 313.79589844 C10.0214502 314.39176758 9.1547168 314.98763672 8.26171875 315.6015625 C7.48973145 316.14353271 6.71774414 316.68550293 5.92236328 317.24389648 C2.89216552 318.71494646 0.83676288 318.75761227 -2.49609375 318.41796875 C-5.04357804 316.98248157 -7.27459723 315.56245695 -9.62109375 313.85546875 C-10.93535018 312.93442474 -12.25178986 312.01648877 -13.5703125 311.1015625 C-14.22435059 310.6463623 -14.87838867 310.19116211 -15.55224609 309.72216797 C-19.35944863 307.16777511 -23.37979201 304.99554652 -27.3984375 302.79296875 C-28.43677734 302.11234375 -28.43677734 302.11234375 -29.49609375 301.41796875 C-29.49609375 300.75796875 -29.49609375 300.09796875 -29.49609375 299.41796875 C-30.285 299.216875 -31.07390625 299.01578125 -31.88671875 298.80859375 C-36.80481349 296.9137434 -40.88381582 294.09580394 -45.24609375 291.16796875 C-51.08103509 287.28692979 -56.94201719 283.51342237 -62.96875 279.93652344 C-67.40872821 277.26876219 -71.75965319 274.46160934 -76.12109375 271.66796875 C-82.66359251 267.48927528 -89.21494742 263.32800267 -95.80859375 259.23046875 C-102.79556721 254.8842693 -109.70399901 250.42178303 -116.60546875 245.94140625 C-119.74891553 243.90073748 -122.89869553 241.87061343 -126.05859375 239.85546875 C-126.83978577 239.32288956 -127.62097778 238.79031036 -128.42584229 238.24159241 C-130.86746092 236.791355 -132.84119897 235.88886584 -135.46722412 234.94822693 C-140.33101441 232.97021259 -144.38565626 230.75532764 -147.49609375 226.41796875 C-150.35291909 217.60045802 -149.50271099 207.81613027 -149.25012302 198.64625478 C-149.16444793 194.95507958 -149.1673001 191.26389543 -149.15936279 187.57188416 C-149.13364885 181.38131894 -149.04895105 175.19393819 -148.92285156 169.00463867 C-148.76118921 161.05934703 -148.6920192 153.11611831 -148.65361404 145.16938114 C-148.62042977 138.32898766 -148.55151729 131.48903058 -148.47346401 124.64901805 C-148.45727184 123.18249315 -148.44231302 121.71595413 -148.42857456 120.24940419 C-148.38344778 115.43494666 -148.30282671 110.62250214 -148.20410156 105.80883789 C-148.19334595 104.59168594 -148.18259033 103.374534 -148.17150879 102.12049866 C-148.14288757 101.01174377 -148.11426636 99.90298889 -148.08477783 98.76063538 C-148.05913694 97.31308412 -148.05913694 97.31308412 -148.03297806 95.83628941 C-147.49609375 93.41796875 -147.49609375 93.41796875 -145.58430099 91.58405209 C-143.49609375 90.41796875 -143.49609375 90.41796875 -141.49609375 90.41796875 C-141.49609375 89.75796875 -141.49609375 89.09796875 -141.49609375 88.41796875 C-140.97692383 88.14186768 -140.45775391 87.8657666 -139.92285156 87.58129883 C-133.47162084 84.08156991 -127.36441149 80.1532056 -121.24609375 76.10546875 C-114.10583131 71.41307037 -106.94630272 66.79601567 -99.64453125 62.359375 C-92.85008016 58.16974449 -86.18577611 53.77218236 -79.49609375 49.41796875 C-70.77454351 43.74124291 -62.04308262 38.10592597 -53.16015625 32.68359375 C-47.52446865 29.21989441 -41.96615331 25.63233665 -36.39111328 22.07226562 C-27.96425832 16.69861898 -19.49084162 11.40168613 -11.00073242 6.12866211 C-10.03369385 5.52675049 -9.06665527 4.92483887 -8.0703125 4.3046875 C-7.21010498 3.77061279 -6.34989746 3.23653809 -5.46362305 2.6862793 C-1.75133244 0.29325911 -1.75133244 0.29325911 0 0 Z " fill="#323231" transform="translate(249.49609375,90.58203125)"/>
<path d="M0 0 C5.12183863 0.61096626 8.38652561 3.20962516 12.56640625 6.10546875 C14.35007934 7.30429301 16.13528637 8.50083757 17.921875 9.6953125 C18.8401709 10.3126123 19.7584668 10.92991211 20.70458984 11.56591797 C25.1978994 14.53872856 29.78552572 17.35323748 34.37890625 20.16796875 C41.21000209 24.37152927 47.996925 28.62596485 54.73046875 32.984375 C59.57371531 36.11659044 64.44746523 39.20091971 69.31640625 42.29296875 C75.98561428 46.52871756 82.63457388 50.79224651 89.25390625 55.10546875 C94.73306152 58.67441259 100.27540538 62.11076166 105.87890625 65.48046875 C117.38553015 72.41660768 128.48710672 79.98557777 139.62988281 87.48608398 C142.44375707 89.50956699 142.44375707 89.50956699 145.64096069 90.74726868 C148.9822994 93.86423802 148.96705034 94.5617374 149.22543335 98.94818115 C149.24287131 101.32577981 149.22677631 103.7037581 149.18505859 106.08105469 C149.18593475 107.37886368 149.18681091 108.67667267 149.18771362 110.0138092 C149.18943514 113.56974297 149.15416271 117.1244623 149.11226988 120.68011379 C149.07476039 124.3969704 149.0712374 128.11385491 149.06411743 131.83087158 C149.045469 138.8681596 148.99623277 145.90488832 148.93602049 152.94193006 C148.86895465 160.95388314 148.8359663 168.96586296 148.80584788 176.97802687 C148.74313309 193.4583349 148.63759901 209.93808045 148.50390625 226.41796875 C148.17390625 226.41796875 147.84390625 226.41796875 147.50390625 226.41796875 C147.50390625 182.85796875 147.50390625 139.29796875 147.50390625 94.41796875 C136.43205962 101.18409725 125.44827675 107.96787775 114.59082031 115.05615234 C93.19585284 129.01744488 71.59306465 142.65482085 49.9765625 156.26953125 C40.75729663 162.07938968 31.56031146 167.92344199 22.37890625 173.79296875 C21.33589355 174.4590918 20.29288086 175.12521484 19.21826172 175.81152344 C17.71610107 176.77300293 17.71610107 176.77300293 16.18359375 177.75390625 C15.2203418 178.36588867 14.25708984 178.97787109 13.26464844 179.60839844 C11.4583549 180.79236091 9.68056289 182.0212942 7.93847656 183.29785156 C7.15827148 183.86600586 6.37806641 184.43416016 5.57421875 185.01953125 C4.90406738 185.53080566 4.23391602 186.04208008 3.54345703 186.56884766 C1.50390625 187.41796875 1.50390625 187.41796875 -0.99755859 186.7199707 C-3.24675627 185.54790003 -5.40562518 184.34845411 -7.54296875 182.984375 C-8.29658691 182.50605225 -9.05020508 182.02772949 -9.82666016 181.53491211 C-10.62507324 181.0219458 -11.42348633 180.50897949 -12.24609375 179.98046875 C-13.08446777 179.44623291 -13.9228418 178.91199707 -14.78662109 178.36157227 C-17.35996472 176.71912079 -19.92886906 175.06996538 -22.49609375 173.41796875 C-23.24600586 172.93553711 -23.99591797 172.45310547 -24.76855469 171.95605469 C-31.02230811 167.92749374 -37.26084525 163.87562221 -43.4921875 159.8125 C-52.67922882 153.83230855 -61.9471438 147.99108879 -71.25097656 142.19433594 C-80.85327722 136.20773518 -90.40202354 130.13895401 -99.93920898 124.04931641 C-102.69351109 122.29201223 -105.4501282 120.53837685 -108.20703125 118.78515625 C-112.24750827 116.2145579 -116.28174175 113.6348513 -120.30859375 111.04296875 C-120.88407959 110.67284668 -121.45956543 110.30272461 -122.05249023 109.92138672 C-125.14437969 107.93269682 -128.23481792 105.94177229 -131.32421875 103.94921875 C-131.94965576 103.54622559 -132.57509277 103.14323242 -133.21948242 102.72802734 C-134.41017641 101.96078606 -135.6004699 101.19292272 -136.7902832 100.42431641 C-139.99469357 98.36023349 -143.22557824 96.38027805 -146.49609375 94.41796875 C-146.49609375 137.97796875 -146.49609375 181.53796875 -146.49609375 226.41796875 C-146.82609375 226.41796875 -147.15609375 226.41796875 -147.49609375 226.41796875 C-147.58947299 209.12877288 -147.66004136 191.83965553 -147.70334244 174.55026531 C-147.72398094 166.52276373 -147.75212593 158.49541869 -147.79785156 150.46801758 C-147.83768016 143.47254977 -147.86351719 136.47719531 -147.87244773 129.48161727 C-147.87766931 125.77634103 -147.88996802 122.07138911 -147.91901398 118.36621666 C-147.9511523 114.23317359 -147.95205574 110.10069684 -147.95019531 105.9675293 C-147.96457642 104.7346669 -147.97895752 103.5018045 -147.99377441 102.23158264 C-147.98827576 101.10837616 -147.9827771 99.98516968 -147.97711182 98.82792664 C-147.98079899 97.84990428 -147.98448616 96.87188192 -147.98828506 95.86422253 C-147.49609375 93.41796875 -147.49609375 93.41796875 -145.59103012 91.57984638 C-143.49609375 90.41796875 -143.49609375 90.41796875 -141.49609375 90.41796875 C-141.49609375 89.75796875 -141.49609375 89.09796875 -141.49609375 88.41796875 C-140.97692383 88.14186768 -140.45775391 87.8657666 -139.92285156 87.58129883 C-133.47162084 84.08156991 -127.36441149 80.1532056 -121.24609375 76.10546875 C-114.10583131 71.41307037 -106.94630272 66.79601567 -99.64453125 62.359375 C-92.85008016 58.16974449 -86.18577611 53.77218236 -79.49609375 49.41796875 C-70.77454351 43.74124291 -62.04308262 38.10592597 -53.16015625 32.68359375 C-47.52446865 29.21989441 -41.96615331 25.63233665 -36.39111328 22.07226562 C-27.96425832 16.69861898 -19.49084162 11.40168613 -11.00073242 6.12866211 C-10.03369385 5.52675049 -9.06665527 4.92483887 -8.0703125 4.3046875 C-7.21010498 3.77061279 -6.34989746 3.23653809 -5.46362305 2.6862793 C-1.75133244 0.29325911 -1.75133244 0.29325911 0 0 Z " fill="#FC6727" transform="translate(249.49609375,90.58203125)"/>
<path d="M0 0 C4.15345438 1.59119861 7.73694116 3.61787892 11.4375 6.0625 C12.68875265 6.87768004 13.94005613 7.69278208 15.19140625 8.5078125 C15.82578613 8.92321289 16.46016602 9.33861328 17.11376953 9.76660156 C20.0254252 11.67052137 22.949149 13.55549097 25.875 15.4375 C26.74112915 15.9951001 26.74112915 15.9951001 27.62475586 16.56396484 C32.55018713 19.72735952 37.51361698 22.8278597 42.48266602 25.92211914 C49.23091973 30.13068168 55.93718385 34.40442329 62.64331055 38.6796875 C68.68896346 42.53285746 74.74632648 46.36673663 80.8125 50.1875 C88.9361755 55.30795421 97.0038594 60.51146198 105.05810547 65.74023438 C107.99366555 67.64462085 110.93285381 69.54330603 113.875 71.4375 C114.42333496 71.79062256 114.97166992 72.14374512 115.53662109 72.50756836 C118.96193197 74.7074574 122.40085973 76.88470289 125.84765625 79.05078125 C126.69021973 79.5806665 127.5327832 80.11055176 128.40087891 80.65649414 C130.04643418 81.69023228 131.69317533 82.72208602 133.34130859 83.75170898 C134.1039502 84.23067627 134.8665918 84.70964355 135.65234375 85.203125 C136.32257568 85.62239258 136.99280762 86.04166016 137.68334961 86.47363281 C138.44784424 86.97733398 139.21233887 87.48103516 140 88 C140.57075068 88.2714833 141.14150135 88.54296659 141.7295475 88.82267666 C143.90995334 90.02161018 145.37800391 91.10066836 147 93 C148.03797665 96.97207967 147.88472709 100.86600383 147.79467773 104.95043945 C147.79569992 106.16061234 147.79672211 107.37078522 147.79777527 108.61763 C147.7937387 111.92835061 147.75869174 115.23600016 147.70975757 118.54617715 C147.66593941 122.00808388 147.66188193 125.47003343 147.65357971 128.93217468 C147.63183964 135.48435547 147.57442086 142.03571676 147.50413328 148.58753699 C147.42583763 156.04809629 147.38739048 163.50869514 147.35226524 170.96956313 C147.27913546 186.31351637 147.1560456 201.65665243 147 217 C146.01 217.33 145.02 217.66 144 218 C143.67 218.99 143.34 219.98 143 221 C136.94508535 219.39072036 131.93633412 216.21256158 126.625 213 C125.69816406 212.4534375 124.77132812 211.906875 123.81640625 211.34375 C122.94113281 210.8178125 122.06585938 210.291875 121.1640625 209.75 C120.36436035 209.27046875 119.5646582 208.7909375 118.74072266 208.296875 C118.16628418 207.86890625 117.5918457 207.4409375 117 207 C117 206.34 117 205.68 117 205 C116.21109375 204.79890625 115.4221875 204.5978125 114.609375 204.390625 C109.69128026 202.49577465 105.61227793 199.67783519 101.25 196.75 C95.41505866 192.86896104 89.55407656 189.09545362 83.52734375 185.51855469 C79.08736554 182.85079344 74.73644056 180.04364059 70.375 177.25 C63.83250124 173.07130653 57.28114633 168.91003392 50.6875 164.8125 C43.70297555 160.46782394 36.79673026 156.00732454 29.8984375 151.52734375 C25.87416694 148.91457107 21.82808592 146.3371285 17.77734375 143.765625 C14.30569215 141.55861161 10.8388281 139.34426813 7.375 137.125 C6.75794189 136.73103027 6.14088379 136.33706055 5.50512695 135.93115234 C1.11495711 133.11495711 1.11495711 133.11495711 0 132 C-0.09622036 130.29174312 -0.12187628 128.57947886 -0.12025452 126.86851501 C-0.12162918 125.75647202 -0.12300385 124.64442902 -0.12442017 123.49868774 C-0.12082489 122.26798553 -0.11722961 121.03728333 -0.11352539 119.76928711 C-0.11367142 118.48166977 -0.11381744 117.19405243 -0.1139679 115.86741638 C-0.11425586 112.3262524 -0.10835936 108.78512201 -0.10139394 105.24396586 C-0.09516017 101.54705012 -0.09455658 97.85013369 -0.09336853 94.1532135 C-0.09025528 87.14796101 -0.08204199 80.14272405 -0.07201904 73.13747841 C-0.0608577 65.16421124 -0.0553474 57.19094335 -0.05032361 49.21767032 C-0.03985937 32.81177111 -0.02226005 16.40588753 0 0 Z " fill="#1D1D1D" transform="translate(103,185)"/>
<path d="M0 0 C4.08613872 2.39838577 5.57032016 4.56673839 7 9 C8.58146586 23.5641972 4.31172987 37.16682563 -4.6875 48.625 C-11.73066375 56.4010818 -21.98998604 61.76794061 -31 67 C-31.33 67 -31.66 67 -32 67 C-32.27977779 59.74181102 -32.47188129 52.48501829 -32.60424805 45.22265625 C-32.65944086 42.75467989 -32.73441768 40.28706123 -32.82983398 37.8203125 C-33.64660739 16.15616229 -33.64660739 16.15616229 -29.69580078 11.67944336 C-26.84317655 9.58965194 -24.27731967 8.29563353 -21 7 C-19.14939105 5.88228283 -17.31305501 4.74015728 -15.5 3.5625 C-10.42688728 0.54004486 -5.96515808 -0.83885036 0 0 Z " fill="#F3F3F3" transform="translate(324,276)"/>
<path d="M0 0 C2.94554858 2.13552272 3.7746927 3.80626657 4.4453125 7.359375 C4.91675926 14.4515741 2.8126613 19.28632259 -0.6875 25.37109375 C-2.29778783 28.10673968 -2.29778783 28.10673968 -2 32 C-0.25337363 34.89684374 1.69338908 37.59537788 3.6640625 40.34375 C5 43 5 43 4.39453125 45.203125 C2.3272702 47.86682271 -0.09270368 49.33868782 -3 51 C-3.99 51 -4.98 51 -6 51 C-7.82421875 48.375 -7.82421875 48.375 -9.6875 45 C-10.62142578 43.329375 -10.62142578 43.329375 -11.57421875 41.625 C-12.27998047 40.325625 -12.27998047 40.325625 -13 39 C-16.54518884 40.39759905 -16.54518884 40.39759905 -20 42 C-19.99887207 42.58491211 -19.99774414 43.16982422 -19.99658203 43.77246094 C-20.00871767 46.43280346 -20.06638386 49.09029245 -20.125 51.75 C-20.12242187 52.67039062 -20.11984375 53.59078125 -20.1171875 54.5390625 C-20.19304635 57.15619276 -20.3324604 59.46671528 -21 62 C-25.43786982 66 -25.43786982 66 -29 66 C-29 66.66 -29 67.32 -29 68 C-29.66 68 -30.32 68 -31 68 C-31.38215824 60.63679581 -31.64369263 53.27616208 -31.82397461 45.90527344 C-31.89914971 43.40202327 -32.00133196 40.89942632 -32.1315918 38.3984375 C-33.16017036 18.13342294 -33.16017036 18.13342294 -29.55081177 12.89788818 C-25.57299501 9.10958758 -21.0173971 7.09745831 -16 5 C-14.49116431 4.00179244 -13.0001199 2.97329527 -11.5625 1.875 C-7.54935719 -0.57310455 -4.63763128 -0.77293855 0 0 Z " fill="#F4F4F4" transform="translate(369,246)"/>
<path d="M0 0 C2.28125 1.5546875 2.28125 1.5546875 4 4 C5.37969276 12.62307973 4.48790127 21.41190377 0 29 C-3.74609094 33.70937147 -8.87219325 36.91695917 -14 40 C-14.33 40 -14.66 40 -15 40 C-15.2481617 35.26812906 -15.42904293 30.54007329 -15.54931641 25.80322266 C-15.59945824 24.19447864 -15.66759943 22.58618719 -15.75439453 20.97900391 C-16.45416792 7.68330953 -16.45416792 7.68330953 -12.90527344 3.57519531 C-8.65738357 0.89405963 -5.06369294 -0.474621 0 0 Z " fill="#343434" transform="translate(317,287)"/>
<path d="M0 0 C0 17.49 0 34.98 0 53 C-4.455 55.475 -4.455 55.475 -9 58 C-9.17306714 50.54365915 -9.30008546 43.08848743 -9.38452148 35.63061523 C-9.41971916 33.09394975 -9.4674847 30.55742621 -9.52807617 28.02124023 C-9.61301732 24.37448124 -9.6526972 20.72959906 -9.68359375 17.08203125 C-9.73778725 15.38177544 -9.73778725 15.38177544 -9.79307556 13.64717102 C-9.79690481 5.96485274 -9.79690481 5.96485274 -7.46536255 3.14193726 C-5.09163197 1.38086421 -3.02651057 0 0 0 Z " fill="#F9F9F9" transform="translate(283,297)"/>
<path d="M0 0 C0.35945897 5.1222903 0.34675659 8.82300861 -2.51953125 13.32421875 C-5.42844202 16.61689083 -9.13283981 18.96190206 -13 21 C-13.66 21 -14.32 21 -15 21 C-16.51573477 7.91415648 -16.51573477 7.91415648 -12.94921875 3.41015625 C-8.40918934 0.12115716 -5.57955009 -1.68894489 0 0 Z " fill="#353535" transform="translate(363,258)"/>
<path d="M0 0 C0.66 0.33 1.32 0.66 2 1 C-0.15672794 3.15672794 -2.31608367 5.30818157 -4.5 7.4375 C-7.05588273 9.92545018 -7.05588273 9.92545018 -9 12.8125 C-9.66 13.534375 -10.32 14.25625 -11 15 C-11.763125 14.979375 -12.52625 14.95875 -13.3125 14.9375 C-17.10429151 15.0256812 -18.41572331 16.92473352 -21.125 19.41796875 C-24.10947699 21.93612121 -27.47115951 23.38499913 -31 25 C-36.67649441 27.73413287 -42.06637637 30.52376534 -47.2109375 34.1796875 C-49.51243598 35.23495973 -50.66505633 34.83317373 -53 34 C-50.89605435 32.645489 -48.79184499 31.29139036 -46.6875 29.9375 C-45.82415039 29.3815918 -45.82415039 29.3815918 -44.94335938 28.81445312 C-37.42319917 23.97716088 -29.87183899 19.18880878 -22.32421875 14.39453125 C-21.39416016 13.80349609 -20.46410156 13.21246094 -19.50585938 12.60351562 C-17.60773551 11.39729277 -15.7092916 10.19157342 -13.81054688 8.98632812 C-9.17355359 6.03845591 -4.55426391 3.07431886 0 0 Z " fill="#F4652E" transform="translate(187,129)"/>
<path d="M0 0 C0.66 0.33 1.32 0.66 2 1 C0.66666667 2.33333333 -0.66666667 3.66666667 -2 5 C-2.825 5.86625 -3.65 6.7325 -4.5 7.625 C-7.58394601 10.55474871 -9.92387028 11.65655435 -13.9375 12.9375 C-16.93446905 13.97726477 -19.30564146 15.35344756 -22 17 C-22.66 17 -23.32 17 -24 17 C-24.20625 17.5775 -24.4125 18.155 -24.625 18.75 C-27.33747578 23.18859674 -31.48866329 25.01975211 -36.375 26.25 C-37.57125 26.4975 -38.7675 26.745 -40 27 C-36.45407035 22.97691359 -32.25217055 20.5676994 -27.6875 17.875 C-19.27951507 12.83294975 -11.11076528 7.50411827 -3 2 C-2.01 1.34 -1.02 0.68 0 0 Z " fill="#512D1B" transform="translate(368,202)"/>
<path d="M0 0 C0 18.15 0 36.3 0 55 C-0.33 55 -0.66 55 -1 55 C-1.00808685 54.40309357 -1.01617371 53.80618713 -1.02450562 53.19119263 C-1.11037197 46.9945903 -1.20986693 40.79831452 -1.31738281 34.60205078 C-1.35573401 32.28765331 -1.3905759 29.97319498 -1.421875 27.65869141 C-1.4673924 24.33734336 -1.52540843 21.01641659 -1.5859375 17.6953125 C-1.59748871 16.65569366 -1.60903992 15.61607483 -1.62094116 14.54495239 C-1.64081085 13.58410736 -1.66068054 12.62326233 -1.68115234 11.63330078 C-1.69447601 10.78502716 -1.70779968 9.93675354 -1.7215271 9.06277466 C-1.81776158 6.77813881 -1.81776158 6.77813881 -4 5 C-6.60280568 5.32041397 -6.60280568 5.32041397 -9 6 C-9 6.66 -9 7.32 -9 8 C-10.28650706 8.69710731 -11.57940665 9.38242876 -12.875 10.0625 C-13.59429687 10.44535156 -14.31359375 10.82820312 -15.0546875 11.22265625 C-15.69664062 11.47917969 -16.33859375 11.73570312 -17 12 C-17.66 11.67 -18.32 11.34 -19 11 C-18.02417969 10.37351563 -17.04835938 9.74703125 -16.04296875 9.1015625 C-14.75780386 8.27605512 -13.47264808 7.45053355 -12.1875 6.625 C-11.54490234 6.2125 -10.90230469 5.8 -10.24023438 5.375 C-1.87430696 0 -1.87430696 0 0 0 Z " fill="#292827" transform="translate(397,185)"/>
<path d="M0 0 C2.5546875 1.3125 2.5546875 1.3125 4.875 3 C6.04675781 3.8353125 6.04675781 3.8353125 7.2421875 4.6875 C7.82226562 5.120625 8.40234375 5.55375 9 6 C8.01 6.66 7.02 7.32 6 8 C6 7.34 6 6.68 6 6 C5.01 6 4.02 6 3 6 C3 5.34 3 4.68 3 4 C-0.05323182 3.70066355 -2.95419355 3.58113697 -6 4 C-8.58333229 6.24958334 -8.58333229 6.24958334 -11 9 C-15.75634429 11.7026704 -20.53508821 13.43949623 -26 14 C-21.98832195 10.70441803 -17.84049831 7.68445946 -13.5625 4.75 C-12.91990234 4.29109375 -12.27730469 3.8321875 -11.61523438 3.359375 C-7.65625884 0.65842925 -4.9477319 -0.84623277 0 0 Z " fill="#E07F5A" transform="translate(253,91)"/>
<path d="M0 0 C0.66 0.33 1.32 0.66 2 1 C0.07922701 5.54919918 -1.39004615 8.02430549 -6 10 C-8.8125 10.1875 -8.8125 10.1875 -11 10 C-11.33 10.99 -11.66 11.98 -12 13 C-13.32303717 13.3721042 -14.65737935 13.70630173 -16 14 C-16.33 14.66 -16.66 15.32 -17 16 C-19.64860427 16.59355614 -22.29197322 16.74209269 -25 17 C-22.96189888 14.83790497 -20.94869555 13.21114017 -18.41796875 11.66015625 C-17.73283203 11.23669922 -17.04769531 10.81324219 -16.34179688 10.37695312 C-15.63087891 9.94318359 -14.91996094 9.50941406 -14.1875 9.0625 C-12.78462272 8.20008604 -11.38227085 7.33681676 -9.98046875 6.47265625 C-9.30935059 6.05902832 -8.63823242 5.64540039 -7.94677734 5.21923828 C-5.25839809 3.53554553 -2.62711823 1.77753211 0 0 Z " fill="#EA7644" transform="translate(214,112)"/>
<path d="M0 0 C0.66 0.33 1.32 0.66 2 1 C-0.77143304 3.89276306 -3.62120593 6.35105286 -6.875 8.6875 C-7.69742188 9.28949219 -8.51984375 9.89148438 -9.3671875 10.51171875 C-12.28624034 12.16180648 -14.6873684 12.63783182 -18 13 C-18.33 13.99 -18.66 14.98 -19 16 C-21.41713274 19.0532203 -24.43182979 20.543604 -28 22 C-30.19140625 21.578125 -30.19140625 21.578125 -32 21 C-25.41500671 16.21954814 -18.63064914 11.82667484 -11.7109375 7.55322266 C-7.75389777 5.10842118 -3.85460576 2.60365451 0 0 Z " fill="#E08D66" transform="translate(187,129)"/>
<path d="M0 0 C5.91353315 3.04490867 11.50912247 6.53778115 17.0625 10.1875 C17.7419165 10.62755371 18.42133301 11.06760742 19.12133789 11.52099609 C20.78480237 12.62657716 22.39782075 13.80733692 24 15 C24 15.66 24 16.32 24 17 C18.70588235 21 18.70588235 21 15 21 C15 20.34 15 19.68 15 19 C15.99 18.67 16.98 18.34 18 18 C18 16.35 18 14.7 18 13 C16.35 13 14.7 13 13 13 C12.34 11.35 11.68 9.7 11 8 C10.37351562 7.95101562 9.74703125 7.90203125 9.1015625 7.8515625 C8.28429687 7.77679688 7.46703125 7.70203125 6.625 7.625 C5.40683594 7.52058594 5.40683594 7.52058594 4.1640625 7.4140625 C2 7 2 7 0 5 C0.66 4.01 1.32 3.02 2 2 C1.34 2 0.68 2 0 2 C0 1.34 0 0.68 0 0 Z " fill="#EA7D4F" transform="translate(373,168)"/>
<path d="M0 0 C5.97163738 3.14379851 11.67143738 6.65423644 17.32348633 10.33398438 C20.66608666 12.50759523 24.02595192 14.64480353 27.421875 16.734375 C28.1533374 17.18530518 28.8847998 17.63623535 29.63842773 18.10083008 C31.06779671 18.97963919 32.49954249 19.85459623 33.93383789 20.7253418 C38.88964782 23.77929564 38.88964782 23.77929564 40 26 C28.39058943 22.51717683 28.39058943 22.51717683 24.71826172 18.65039062 C22.55456792 16.57216243 20.21078741 15.10069986 17.67578125 13.49609375 C16.64775391 12.83802734 15.61972656 12.17996094 14.56054688 11.50195312 C12.38506565 10.11922092 10.2079646 8.73903413 8.02929688 7.36132812 C7.00513672 6.70455078 5.98097656 6.04777344 4.92578125 5.37109375 C3.98130127 4.77224365 3.03682129 4.17339355 2.0637207 3.55639648 C1.38269287 3.04278564 0.70166504 2.5291748 0 2 C0 1.34 0 0.68 0 0 Z " fill="#461B0A" transform="translate(113,191)"/>
<path d="M0 0 C12 4 12 4 14 7 C16.56282742 7.72965366 16.56282742 7.72965366 19 8 C19 8.99 19 9.98 19 11 C19.515625 11.2475 20.03125 11.495 20.5625 11.75 C23.77184151 13.39581616 26.87585664 15.1976096 30 17 C30 17.66 30 18.32 30 19 C26.37881779 17.66384186 23.29335574 16.04328117 20.0625 13.9375 C19.11890625 13.32519531 18.1753125 12.71289062 17.203125 12.08203125 C16.14609375 11.39496094 15.0890625 10.70789063 14 10 C12.72489527 9.18992956 11.44881398 8.38139471 10.171875 7.57421875 C8.88540963 6.75782359 7.59895121 5.94141748 6.3125 5.125 C5.68802979 4.73175537 5.06355957 4.33851074 4.42016602 3.93334961 C2.92945993 2.98217689 1.46206713 1.99463253 0 1 C0 0.67 0 0.34 0 0 Z " fill="#CD6238" transform="translate(130,201)"/>
<path d="M0 0 C-16.70842825 10.55808656 -16.70842825 10.55808656 -25 15 C-25 14.01 -25 13.02 -25 12 C-24.01 12 -23.02 12 -22 12 C-22 11.34 -22 10.68 -22 10 C-21.195625 9.71125 -20.39125 9.4225 -19.5625 9.125 C-16.8673532 8.26737432 -16.8673532 8.26737432 -16 6 C-14.68 6 -13.36 6 -12 6 C-12.33 5.01 -12.66 4.02 -13 3 C-11.40084119 2.30093058 -9.79544955 1.61610532 -8.1875 0.9375 C-7.29417969 0.55464844 -6.40085937 0.17179688 -5.48046875 -0.22265625 C-3 -1 -3 -1 0 0 Z " fill="#D86837" transform="translate(309,241)"/>
<path d="M0 0 C0.66 0.33 1.32 0.66 2 1 C1.67 1.99 1.34 2.98 1 4 C-0.98 4.33 -2.96 4.66 -5 5 C-5 5.66 -5 6.32 -5 7 C-5.99 7.495 -5.99 7.495 -7 8 C-6.42055068 9.99863756 -6.42055068 9.99863756 -5 12 C-1.95800528 13.29231642 -1.95800528 13.29231642 1 14 C1 14.99 1 15.98 1 17 C-3.77609498 15.35821735 -7.79382904 12.73453298 -12 10 C-11.67 9.01 -11.34 8.02 -11 7 C-8.9375 6.3125 -8.9375 6.3125 -7 6 C-7 5.34 -7 4.68 -7 4 C-1.7265625 0.77734375 -1.7265625 0.77734375 0 0 Z " fill="#CD6C47" transform="translate(115,175)"/>
<path d="M0 0 C4.69962587 1.6334622 8.64669166 4.15155563 12.8125 6.8125 C13.48603516 7.23853516 14.15957031 7.66457031 14.85351562 8.10351562 C16.21007506 8.96158815 17.56571382 9.821118 18.92041016 10.68212891 C22.26986122 12.80473244 25.63482033 14.90245188 29 17 C26 18 26 18 22.8125 16.5625 C21.884375 16.046875 20.95625 15.53125 20 15 C20 14.34 20 13.68 20 13 C17.34771188 11.92474806 14.71631546 10.90543849 12 10 C12 9.34 12 8.68 12 8 C9.25633303 6.87025478 6.62111786 5.89799327 3.75 5.125 C2.8425 4.75375 1.935 4.3825 1 4 C0.125 1.875 0.125 1.875 0 0 Z " fill="#461D0A" transform="translate(153,217)"/>
<path d="M0 0 C-0.33 0.99 -0.66 1.98 -1 3 C-3.0625 3.6875 -3.0625 3.6875 -5 4 C-5 4.66 -5 5.32 -5 6 C-5.61488281 6.33773437 -6.22976562 6.67546875 -6.86328125 7.0234375 C-7.67152344 7.46945313 -8.47976562 7.91546875 -9.3125 8.375 C-10.11300781 8.81585938 -10.91351563 9.25671875 -11.73828125 9.7109375 C-13.53527943 10.73513335 -15.27900708 11.85267138 -17 13 C-19.1875 12.625 -19.1875 12.625 -21 12 C-18.77144622 10.56154242 -16.54218143 9.12420781 -14.3125 7.6875 C-13.68666016 7.28337891 -13.06082031 6.87925781 -12.41601562 6.46289062 C-2.38014482 0 -2.38014482 0 0 0 Z " fill="#E3926A" transform="translate(155,151)"/>
<path d="M0 0 C0.66 0.33 1.32 0.66 2 1 C-12.19830992 10.57912643 -12.19830992 10.57912643 -18.8125 14.6875 C-19.58207031 15.16574219 -20.35164063 15.64398438 -21.14453125 16.13671875 C-21.75683594 16.42160156 -22.36914062 16.70648438 -23 17 C-23.66 16.67 -24.32 16.34 -25 16 C-24.01 15.67 -23.02 15.34 -22 15 C-22 14.34 -22 13.68 -22 13 C-15.25 9 -15.25 9 -13 9 C-13 8.34 -13 7.68 -13 7 C-11.68 7 -10.36 7 -9 7 C-9 6.34 -9 5.68 -9 5 C-7.54735962 4.1361871 -6.0876837 3.28419546 -4.625 2.4375 C-3.81289063 1.96183594 -3.00078125 1.48617188 -2.1640625 0.99609375 C-1.44992187 0.66738281 -0.73578125 0.33867187 0 0 Z " fill="#D6693A" transform="translate(281,256)"/>
<path d="M0 0 C0.66 0.33 1.32 0.66 2 1 C0.54875366 4.82601307 -1.35774704 6.22329124 -5 8 C-5.99 8 -6.98 8 -8 8 C-8.33 8.99 -8.66 9.98 -9 11 C-10.98 11 -12.96 11 -15 11 C-12.05740921 7.85519325 -8.99939466 5.50769874 -5.375 3.1875 C-4.41335937 2.56230469 -3.45171875 1.93710938 -2.4609375 1.29296875 C-1.64882812 0.86628906 -0.83671875 0.43960938 0 0 Z " fill="#E7885D" transform="translate(132,164)"/>
<path d="M0 0 C6.16136581 1.3109289 11.14403099 3.94785353 16 8 C16 8.66 16 9.32 16 10 C16.928125 10.103125 17.85625 10.20625 18.8125 10.3125 C22.02464205 11.00531495 23.11930017 11.3879169 25 14 C25 14.66 25 15.32 25 16 C19.97015762 14.30668653 15.78251058 11.44693739 11.375 8.5625 C10.611875 8.07201172 9.84875 7.58152344 9.0625 7.07617188 C5.73654832 4.91430328 2.73392334 2.89757741 0 0 Z " fill="#D4673A" transform="translate(190,239)"/>
<path d="M0 0 C3.62276315 1.3255581 6.63505348 2.94346955 9.8125 5.125 C10.60269531 5.66382813 11.39289063 6.20265625 12.20703125 6.7578125 C12.79871094 7.16773438 13.39039063 7.57765625 14 8 C13.67 8.66 13.34 9.32 13 10 C7.51072032 8.81603772 4.70554103 7.46844653 1 3 C0.67 2.01 0.34 1.02 0 0 Z " fill="#E87444" transform="translate(328,140)"/>
<path d="M0 0 C1.65 0 3.3 0 5 0 C1.08359038 3.26492274 -3.01312695 6.03134392 -7.3125 8.75 C-8.28026367 9.36681641 -8.28026367 9.36681641 -9.26757812 9.99609375 C-10.84341957 10.99996311 -12.42148267 12.00034356 -14 13 C-14.33 11.68 -14.66 10.36 -15 9 C-14.21625 8.9175 -13.4325 8.835 -12.625 8.75 C-9.85250896 8.27193661 -9.85250896 8.27193661 -8.6875 5.9375 C-8.460625 5.298125 -8.23375 4.65875 -8 4 C-7.01 4.33 -6.02 4.66 -5 5 C-5 4.34 -5 3.68 -5 3 C-3.35 2.34 -1.7 1.68 0 1 C0 0.67 0 0.34 0 0 Z " fill="#E36933" transform="translate(384,189)"/>
<path d="M0 0 C0 1.98 0 3.96 0 6 C-0.556875 5.814375 -1.11375 5.62875 -1.6875 5.4375 C-4.399133 4.92448835 -6.34371039 5.3359276 -9 6 C-9 6.66 -9 7.32 -9 8 C-10.28650706 8.69710731 -11.57940665 9.38242876 -12.875 10.0625 C-13.59429687 10.44535156 -14.31359375 10.82820312 -15.0546875 11.22265625 C-15.69664062 11.47917969 -16.33859375 11.73570312 -17 12 C-17.66 11.67 -18.32 11.34 -19 11 C-18.02417969 10.37351563 -17.04835938 9.74703125 -16.04296875 9.1015625 C-14.75780386 8.27605512 -13.47264808 7.45053355 -12.1875 6.625 C-11.54490234 6.2125 -10.90230469 5.8 -10.24023438 5.375 C-1.87430696 0 -1.87430696 0 0 0 Z " fill="#452A1D" transform="translate(397,185)"/>
<path d="M0 0 C-3.25145196 3.90174235 -6.15297274 4.76621124 -11 6 C-11.99 6.66 -12.98 7.32 -14 8 C-16.1875 7.625 -16.1875 7.625 -18 7 C-16.25447936 5.84735447 -14.50339804 4.70312673 -12.75 3.5625 C-11.77546875 2.92441406 -10.8009375 2.28632812 -9.796875 1.62890625 C-5.94248471 -0.61589927 -4.27126123 -1.42375374 0 0 Z " fill="#E58257" transform="translate(245,97)"/>
<path d="M0 0 C1.32 0.33 2.64 0.66 4 1 C-2.6 5.29 -9.2 9.58 -16 14 C-16 13.01 -16 12.02 -16 11 C-14.68 10.67 -13.36 10.34 -12 10 C-12 9.34 -12 8.68 -12 8 C-11.030625 7.54625 -10.06125 7.0925 -9.0625 6.625 C-5.92920418 5.34213779 -5.92920418 5.34213779 -5 3 C-3.68 3 -2.36 3 -1 3 C-0.67 2.01 -0.34 1.02 0 0 Z " fill="#D9683C" transform="translate(364,202)"/>
<path d="M0 0 C4.5076467 0.53031138 7.41954788 2.25221116 11 5 C11 5.66 11 6.32 11 7 C5.70588235 11 5.70588235 11 2 11 C2 10.34 2 9.68 2 9 C2.99 8.67 3.98 8.34 5 8 C5 6.35 5 4.7 5 3 C3.35 3 1.7 3 0 3 C0 2.01 0 1.02 0 0 Z " fill="#DB7349" transform="translate(386,178)"/>
<path d="M0 0 C0.66 0.33 1.32 0.66 2 1 C1.67 1.99 1.34 2.98 1 4 C0.195625 4.12375 -0.60875 4.2475 -1.4375 4.375 C-2.7059375 4.684375 -2.7059375 4.684375 -4 5 C-4.33 5.66 -4.66 6.32 -5 7 C-5.99 7 -6.98 7 -8 7 C-8.33 8.32 -8.66 9.64 -9 11 C-11.64 11.33 -14.28 11.66 -17 12 C-13.97348807 8.82909668 -10.60408072 6.61481402 -6.9375 4.25 C-6.30005859 3.82589844 -5.66261719 3.40179688 -5.00585938 2.96484375 C-3.3776117 1.91137265 -1.69200355 0.94768972 0 0 Z " fill="#E68F6A" transform="translate(206,117)"/>
<path d="M0 0 C-5.28 3.3 -10.56 6.6 -16 10 C-16.33 9.01 -16.66 8.02 -17 7 C-14.35261084 5.5393715 -13.10551666 5 -10 5 C-9.773125 4.38125 -9.54625 3.7625 -9.3125 3.125 C-6.9604125 -0.68314167 -4.12119017 -1.37373006 0 0 Z " fill="#D76636" transform="translate(326,230)"/>
<path d="M0 0 C3.69876091 1.37287342 6.9514476 3.06355453 10.3125 5.125 C11.19550781 5.66382813 12.07851562 6.20265625 12.98828125 6.7578125 C13.65214844 7.16773438 14.31601563 7.57765625 15 8 C11.39861662 9.20046113 10.40435919 8.7127277 6.9375 7.375 C6.05964844 7.05273438 5.18179688 6.73046875 4.27734375 6.3984375 C1.43265359 4.65161232 0.92436917 3.14389967 0 0 Z " fill="#401D0E" transform="translate(186,238)"/>
<path d="M0 0 C0.66 0.33 1.32 0.66 2 1 C-2.02778947 7.04168421 -6.01704814 8.4542592 -13 10 C-9.23156953 5.87827917 -5.11095695 2.36931779 0 0 Z " fill="#542C1B" transform="translate(263,269)"/>
<path d="M0 0 C-0.57344937 2.86724686 -0.8614515 3.8614515 -3 6 C-5.3828125 6.6328125 -5.3828125 6.6328125 -8.125 7.125 C-9.03507812 7.29257813 -9.94515625 7.46015625 -10.8828125 7.6328125 C-11.58148438 7.75398437 -12.28015625 7.87515625 -13 8 C-9.81692689 4.43495812 -5.03655764 0 0 0 Z " fill="#4E2C1A" transform="translate(314,238)"/>
<path d="M0 0 C0.55171875 0.23589844 1.1034375 0.47179687 1.671875 0.71484375 C-1.31508925 4.04645772 -4.15532222 6.06310932 -8.328125 7.71484375 C-10.515625 7.2890625 -10.515625 7.2890625 -12.328125 6.71484375 C-10.75638425 5.51204214 -9.17024942 4.328031 -7.578125 3.15234375 C-6.69640625 2.49105469 -5.8146875 1.82976562 -4.90625 1.1484375 C-2.328125 -0.28515625 -2.328125 -0.28515625 0 0 Z " fill="#E38761" transform="translate(167.328125,143.28515625)"/>
<path d="M0 0 C-4.95 3.3 -9.9 6.6 -15 10 C-15 7 -15 7 -13.75 5.3125 C-12 4 -12 4 -8 4 C-7.67 3.01 -7.34 2.02 -7 1 C-4.05697101 -0.96201933 -3.48011144 -1.16003715 0 0 Z " fill="#D56737" transform="translate(343,219)"/>
<path d="M0 0 C1.65 0 3.3 0 5 0 C5 0.66 5 1.32 5 2 C6.32 2.33 7.64 2.66 9 3 C9 3.66 9 4.32 9 5 C10.65 5 12.3 5 14 5 C13.67 5.66 13.34 6.32 13 7 C8.64590465 7 7.69295398 6.45344027 4.25 4.0625 C3.45078125 3.51722656 2.6515625 2.97195313 1.828125 2.41015625 C1.22484375 1.94480469 0.6215625 1.47945313 0 1 C0 0.67 0 0.34 0 0 Z " fill="#D66335" transform="translate(215,255)"/>
<path d="M0 0 C4.77609498 1.64178265 8.79382904 4.26546702 13 7 C9.23677779 8.10823705 7.53070928 7.85362237 4 6 C1.6875 4 1.6875 4 0 2 C0 1.34 0 0.68 0 0 Z " fill="#E48D5F" transform="translate(342,149)"/>
<path d="M0 0 C3.62276315 1.3255581 6.63505348 2.94346955 9.8125 5.125 C10.60269531 5.66382812 11.39289063 6.20265625 12.20703125 6.7578125 C12.79871094 7.16773437 13.39039063 7.57765625 14 8 C12.68 8.33 11.36 8.66 10 9 C9.67 8.01 9.34 7.02 9 6 C7.6078125 5.8453125 7.6078125 5.8453125 6.1875 5.6875 C2.97535795 4.99468505 1.88069983 4.6120831 0 2 C0 1.34 0 0.68 0 0 Z " fill="#E19879" transform="translate(281,110)"/>
<path d="M0 0 C4 1.33333333 8 2.66666667 12 4 C12 3.34 12 2.68 12 2 C13.32 2.33 14.64 2.66 16 3 C14.35 4.32 12.7 5.64 11 7 C6.89188572 5.55007731 3.53144334 3.54592427 0 1 C0 0.67 0 0.34 0 0 Z " fill="#CC6338" transform="translate(240,271)"/>
<path d="M0 0 C0.66 0.33 1.32 0.66 2 1 C1.34 2.65 0.68 4.3 0 6 C-0.78375 5.95875 -1.5675 5.9175 -2.375 5.875 C-5.16116119 5.71271266 -5.16116119 5.71271266 -7 8 C-9.125 7.625 -9.125 7.625 -11 7 C-9.21475351 5.80286983 -7.4215972 4.61752721 -5.625 3.4375 C-4.62726563 2.77621094 -3.62953125 2.11492187 -2.6015625 1.43359375 C-1.74304688 0.96050781 -0.88453125 0.48742187 0 0 Z " fill="#532D1A" transform="translate(293,250)"/>
<path d="M0 0 C0.66 0 1.32 0 2 0 C2 0.66 2 1.32 2 2 C3.32 1.67 4.64 1.34 6 1 C6.66 2.32 7.32 3.64 8 5 C6.375 5.75 6.375 5.75 4 6 C0.75 4.0625 0.75 4.0625 -2 2 C-1.34 1.34 -0.68 0.68 0 0 Z " fill="#353435" transform="translate(115,322)"/>
<path d="M0 0 C3.62276315 1.3255581 6.63505348 2.94346955 9.8125 5.125 C10.60269531 5.66382813 11.39289063 6.20265625 12.20703125 6.7578125 C12.79871094 7.16773438 13.39039063 7.57765625 14 8 C13.34 8.66 12.68 9.32 12 10 C12 9.34 12 8.68 12 8 C11.071875 7.7834375 11.071875 7.7834375 10.125 7.5625 C8 7 8 7 6 6 C6 5.34 6 4.68 6 4 C4.02 3.34 2.04 2.68 0 2 C0 1.34 0 0.68 0 0 Z " fill="#E38F6C" transform="translate(358,159)"/>
<path d="M0 0 C3.93673644 1.31224548 6.22719294 2.91910327 9 6 C8 7 8 7 5.625 7.375 C3 7 3 7 1.1875 4.625 C0 2 0 2 0 0 Z " fill="#E77E56" transform="translate(295,119)"/>
<path d="M0 0 C3.62276315 1.3255581 6.63505348 2.94346955 9.8125 5.125 C10.60269531 5.66382812 11.39289063 6.20265625 12.20703125 6.7578125 C12.79871094 7.16773437 13.39039063 7.57765625 14 8 C12.68 8.33 11.36 8.66 10 9 C10 8.34 10 7.68 10 7 C8.35 6.67 6.7 6.34 5 6 C5 5.34 5 4.68 5 4 C4.360625 3.896875 3.72125 3.79375 3.0625 3.6875 C2.381875 3.460625 1.70125 3.23375 1 3 C0.67 2.01 0.34 1.02 0 0 Z " fill="#E1926B" transform="translate(262,98)"/>
<path d="M0 0 C0.66 0.33 1.32 0.66 2 1 C2 1.99 2 2.98 2 4 C1.34 4 0.68 4 0 4 C-0.33 4.99 -0.66 5.98 -1 7 C-2.98 6.01 -4.96 5.02 -7 4 C-6.34 3.67 -5.68 3.34 -5 3 C-4.34 3.33 -3.68 3.66 -3 4 C-2.67 3.01 -2.34 2.02 -2 1 C-1.34 0.67 -0.68 0.34 0 0 Z " fill="#2F2F2F" transform="translate(236,393)"/>
<path d="M0 0 C0.66 0.33 1.32 0.66 2 1 C-0.25740623 3.33524782 -2.2805761 5.18705073 -5 7 C-6.32 6.67 -7.64 6.34 -9 6 C-6.03 4.02 -3.06 2.04 0 0 Z " fill="#E7A17A" transform="translate(187,129)"/>
<path d="M0 0 C5.26170694 1.41167747 8.72171358 3.74850232 13 7 C12.01 7.495 12.01 7.495 11 8 C8.375 7.0625 8.375 7.0625 6 6 C6 5.34 6 4.68 6 4 C4.02 3.34 2.04 2.68 0 2 C0 1.34 0 0.68 0 0 Z " fill="#E29376" transform="translate(304,125)"/>
<path d="M0 0 C0.66 0.33 1.32 0.66 2 1 C2 2.98 2 4.96 2 7 C-0.31 6.34 -2.62 5.68 -5 5 C-4.01 4.34 -3.02 3.68 -2 3 C-1.34 2.01 -0.68 1.02 0 0 Z " fill="#2B2A2B" transform="translate(248,401)"/>
<path d="M0 0 C1.32 0.33 2.64 0.66 4 1 C3.34 2.65 2.68 4.3 2 6 C-2.875 4.25 -2.875 4.25 -4 2 C-3.01 2 -2.02 2 -1 2 C-0.67 1.34 -0.34 0.68 0 0 Z " fill="#3A3A3A" transform="translate(146,339)"/>
<path d="M0 0 C0 0.99 0 1.98 0 3 C-0.53625 2.79375 -1.0725 2.5875 -1.625 2.375 C-4.83267308 1.8685253 -7.01317066 2.84599775 -10 4 C-10 3.34 -10 2.68 -10 2 C-6.37626474 -0.79545292 -4.37834956 -1.37605272 0 0 Z " fill="#474747" transform="translate(363,258)"/>
<path d="M0 0 C0.66 0.33 1.32 0.66 2 1 C1.67 1.99 1.34 2.98 1 4 C-0.98 4.33 -2.96 4.66 -5 5 C-5 5.66 -5 6.32 -5 7 C-6.32 6.67 -7.64 6.34 -9 6 C-8.34 6 -7.68 6 -7 6 C-7 5.34 -7 4.68 -7 4 C-1.7265625 0.77734375 -1.7265625 0.77734375 0 0 Z " fill="#E38761" transform="translate(115,175)"/>
<path d="M0 0 C-2.97 1.65 -5.94 3.3 -9 5 C-9.33 3.35 -9.66 1.7 -10 0 C-6.05523353 -0.80688405 -4.00001715 -1.00000429 0 0 Z " fill="#535351" transform="translate(341,353)"/>
<path d="M0 0 C0.66 0.33 1.32 0.66 2 1 C1.2884375 1.928125 1.2884375 1.928125 0.5625 2.875 C-1.02417441 4.90705546 -1.02417441 4.90705546 -2 7 C-2.99 6.67 -3.98 6.34 -5 6 C-7.14255793 6.38932856 -7.14255793 6.38932856 -9 7 C-6.3765992 4.08511023 -3.28183606 2.11496102 0 0 Z " fill="#494949" transform="translate(304,335)"/>
<path d="M0 0 C1.31602523 0.61754259 2.62773556 1.24428742 3.9375 1.875 C4.66839844 2.22304688 5.39929688 2.57109375 6.15234375 2.9296875 C8 4 8 4 9 6 C2.25 5.25 2.25 5.25 0 3 C0 2.01 0 1.02 0 0 Z " fill="#3A1C0B" transform="translate(240,272)"/>
<path d="M0 0 C1.32 0 2.64 0 4 0 C4 0.66 4 1.32 4 2 C5.32 2 6.64 2 8 2 C10.01623639 3.78277744 11.37344618 5.83126157 13 8 C8.27626146 6.37621488 4.05818166 3.89006982 0 1 C0 0.67 0 0.34 0 0 Z " fill="#D26339" transform="translate(177,231)"/>
<path d="M0 0 C2 1 2 1 3 3 C0.69 3.33 -1.62 3.66 -4 4 C-4.33 4.99 -4.66 5.98 -5 7 C-6.32 6.67 -7.64 6.34 -9 6 C-6.03 4.02 -3.06 2.04 0 0 Z " fill="#E69972" transform="translate(225,105)"/>
<path d="M0 0 C2.475 0.495 2.475 0.495 5 1 C5 1.66 5 2.32 5 3 C5.66 3 6.32 3 7 3 C7 3.66 7 4.32 7 5 C5.02 5.33 3.04 5.66 1 6 C0.67 4.02 0.34 2.04 0 0 Z " fill="#F0662D" transform="translate(368,167)"/>
<path d="M0 0 C2.97 1.65 5.94 3.3 9 5 C9 5.99 9 6.98 9 8 C2.21917808 4.83561644 2.21917808 4.83561644 0 2 C0 1.34 0 0.68 0 0 Z " fill="#E5916E" transform="translate(318,133)"/>
<path d="M0 0 C0 0.33 0 0.66 0 1 C-1.65 1 -3.3 1 -5 1 C-5.20625 1.639375 -5.4125 2.27875 -5.625 2.9375 C-7 5 -7 5 -10.125 5.75 C-11.548125 5.87375 -11.548125 5.87375 -13 6 C-8.69305903 1.54454382 -6.32208571 -0.28098159 0 0 Z " fill="#E19676" transform="translate(253,91)"/>
<path d="M0 0 C0.66 0.33 1.32 0.66 2 1 C1.67 1.99 1.34 2.98 1 4 C-2.80269732 5.6900877 -5.05272168 6.19873962 -9 5 C-8.43410156 4.72285156 -7.86820313 4.44570312 -7.28515625 4.16015625 C-6.55167969 3.79792969 -5.81820312 3.43570313 -5.0625 3.0625 C-3.96615234 2.52302734 -3.96615234 2.52302734 -2.84765625 1.97265625 C-1.03750973 1.13628173 -1.03750973 1.13628173 0 0 Z " fill="#EE6831" transform="translate(142,160)"/>
<path d="M0 0 C2.97 1.65 5.94 3.3 9 5 C9 5.99 9 6.98 9 8 C8.67 7.34 8.34 6.68 8 6 C5.47266765 5.34444881 5.47266765 5.34444881 3 5 C2.67 4.01 2.34 3.02 2 2 C1.34 2 0.68 2 0 2 C0 1.34 0 0.68 0 0 Z " fill="#E29267" transform="translate(332,142)"/>
<path d="M0 0 C3.99500618 1.3697164 6.80009492 3.25722422 10 6 C6.1936543 5.32829194 2.64793184 4.27253436 -1 3 C-0.67 2.01 -0.34 1.02 0 0 Z " fill="#3C1909" transform="translate(230,266)"/>
<path d="M0 0 C3.49158202 0.64658926 6.0974856 1.96039529 9 4 C9.33 4.99 9.66 5.98 10 7 C6.6861991 6.42865502 5.21373349 5.50248134 3 3 C2.443125 2.443125 1.88625 1.88625 1.3125 1.3125 C0.879375 0.879375 0.44625 0.44625 0 0 Z " fill="#331408" transform="translate(133,205)"/>
<path d="M0 0 C0.66 0.33 1.32 0.66 2 1 C-1.222107 4.8665284 -4.14922412 5.88059018 -9 7 C-6.3765992 4.08511023 -3.28183606 2.11496102 0 0 Z " fill="#5B2D17" transform="translate(387,190)"/>
<path d="M0 0 C-0.99 0.33 -1.98 0.66 -3 1 C-3.33 1.99 -3.66 2.98 -4 4 C-5.65 4.33 -7.3 4.66 -9 5 C-6.81610567 0.16423399 -5.20641855 -0.13701101 0 0 Z " fill="#EB692F" transform="translate(196,128)"/>
<path d="M0 0 C-2.88087546 2.40072955 -5.56404834 4.47291037 -9 6 C-8.6875 4.125 -8.6875 4.125 -8 2 C-4.77208445 -0.1519437 -3.71599191 -0.20086443 0 0 Z " fill="#D86737" transform="translate(389,189)"/>
<path d="M0 0 C0.66 0 1.32 0 2 0 C2 1.65 2 3.3 2 5 C0.02 5 -1.96 5 -4 5 C-4.33 4.34 -4.66 3.68 -5 3 C-3.68 3.33 -2.36 3.66 -1 4 C-0.67 2.68 -0.34 1.36 0 0 Z " fill="#575757" transform="translate(251,404)"/>
<path d="M0 0 C3.37503669 1.1858237 5.64722731 2.27573689 8 5 C7.01 5.33 6.02 5.66 5 6 C4.67 5.01 4.34 4.02 4 3 C2.68 3 1.36 3 0 3 C0 2.01 0 1.02 0 0 Z " fill="#E0865E" transform="translate(380,173)"/>
</svg>
